<svg xmlns="http://www.w3.org/2000/svg" width="800" height="500" viewBox="0 0 800 500">
  <defs>
    <linearGradient id="g1" x1="0" y1="0" x2="1" y2="1">
      <stop offset="0" stop-color="#d946ef" stop-opacity="0.55"/>
      <stop offset="0.55" stop-color="#6366f1" stop-opacity="0.35"/>
      <stop offset="1" stop-color="#22d3ee" stop-opacity="0.35"/>
    </linearGradient>
    <radialGradient id="v" cx="50%" cy="40%" r="70%">
      <stop offset="0" stop-color="#000000" stop-opacity="0"/>
      <stop offset="0.7" stop-color="#000000" stop-opacity="0.35"/>
      <stop offset="1" stop-color="#000000" stop-opacity="0.75"/>
    </radialGradient>
    <filter id="blur" x="-20%" y="-20%" width="140%" height="140%">
      <feGaussianBlur stdDeviation="18"/>
    </filter>
  </defs>

  <rect width="800" height="500" fill="#070812"/>
  <rect width="800" height="500" fill="url(#g1)"/>

  <ellipse cx="220" cy="230" rx="320" ry="90" fill="#d946ef" fill-opacity="0.18" filter="url(#blur)" transform="rotate(-8 220 230)"/>
  <ellipse cx="610" cy="260" rx="340" ry="95" fill="#22d3ee" fill-opacity="0.12" filter="url(#blur)" transform="rotate(10 610 260)"/>

  <g opacity="0.25" stroke="#ffffff" stroke-width="2">
    <path d="M120 340 C 170 310, 220 370, 270 340 S 370 310, 420 340 S 520 370, 620 340 S 700 310, 760 340" fill="none"/>
    <path d="M140 365 C 190 335, 240 395, 290 365 S 390 335, 440 365 S 540 395, 640 365 S 710 335, 780 365" fill="none" opacity="0.6"/>
  </g>

  <rect width="800" height="500" fill="url(#v)"/>
</svg>
